<svg xmlns="http://www.w3.org/2000/svg" version="1.1" xmlns:xlink="http://www.w3.org/1999/xlink" xmlns:svgjs="http://svgjs.com/svgjs" width="180" height="180"><svg data-name="Layer 1" xmlns="http://www.w3.org/2000/svg" viewBox="0 0 180 180"><circle cx="90" cy="90" r="87.5" style="fill:#d8ec83"></circle><path d="M126.29 28.77q2.08 17.25 4.18 34.49l-2.13.79c-1.08-1.47-2.19-2.92-3.22-4.42-3.81-5.48-6.8-11.8-11.52-16.31-14.39-13.72-33.81-11.2-45 5.14C54 69.73 57.58 105.22 76 123c16.88 16.29 40.95 11.7 50.66-9.66 1.27-2.79 2.57-5.56 4.62-10 4 15-7 32.75-22.19 39.41-32.43 14.17-68.77-7-73.23-43.38-2.78-22.61 2-43.26 20.51-58.71 15.73-13.12 33.51-15.12 52.52-9.15 5.71 1.8 11.09 3.95 14.93-3.91Z" style="fill:#1c1f11"></path></svg><style>@media (prefers-color-scheme: light) { :root { filter: none; } }
@media (prefers-color-scheme: dark) { :root { filter: none; } }
</style></svg>